<svg id="Layer_1" data-name="Layer 1" xmlns="http://www.w3.org/2000/svg" viewBox="0 0 364 322"><defs><style>.cls-1{fill:#fff;}</style></defs><path class="cls-1" d="M282.78,204c-3.64,11.2-10.8,17.1-20.27,16.75-8.84-.34-17-6.2-19.24-16.64H149.66c-3,12.54-12.54,16.68-19.83,16.63-8-.06-17-5.06-19.66-16.74-3.06,0-6.16,0-9.27,0s-4.44-1.35-4.19-4.55q2-24.88,4-49.76,1.3-16.37,2.59-32.75c.23-2.94,1.29-4,4.2-4q14.66,0,29.3,0h2.31c-5.5-17.1-2-31.41,12.8-41.76a31.59,31.59,0,0,1,37.06.76c13.81,10.51,17,24.47,11.63,41h37.58c4.07,0,5.13,1.22,4.75,5.41-.27,3-.5,6-.74,9s-.48,5.87-.74,9.08c.77,0,1.49.09,2.21.09h31.59c3,0,3.9.64,4.7,3.61q7.93,29.2,15.86,58.41c1,3.77-.25,5.42-4.14,5.42Zm-46.71-84.19c-.64-.06-1-.12-1.44-.12-12.26,0-24.52,0-36.78.06a3.84,3.84,0,0,0-2.5,1.37c-13.7,16.11-37.38,16.11-51-.08a3.45,3.45,0,0,0-3-1.38c-9.83,0-19.67,0-29.51,0-.67,0-1.34.06-2.15.1L106,166.85h45.64a10.2,10.2,0,0,1,2.07.07,3.35,3.35,0,0,1,.06,6.6,10.17,10.17,0,0,1-2.07.07H105.45c-.58,7.47-1.15,14.73-1.71,22,0,.47,0,.95,0,1.52h6.48c2.42-10.95,10.93-16.44,19.43-16.65,9.49-.24,16.69,5.75,20,16.57H230C232,171.19,234,145.53,236.07,119.76ZM143.23,99.27c0,14.92,11.84,27.07,26.43,27.1a27,27,0,1,0-26.43-27.1Zm139.52,97.82h5.72l-6.42-23.5H248.27c-.56,0-1.11,0-1.67,0-2.14-.1-3.54-1.4-3.58-3.31s1.41-3.41,3.67-3.42c8.31,0,16.63,0,24.94,0h8.59c-2.19-8-4.32-15.8-6.42-23.46H240.9c-1.42,18-2.82,35.78-4.23,53.7h6.6c2.23-10.42,10.39-16.33,19.24-16.64C272,180.11,279.1,186,282.75,197.09ZM143.22,200.5a13.3,13.3,0,1,0-13.29,13.56A13.41,13.41,0,0,0,143.22,200.5Zm133,.07a13.3,13.3,0,1,0-13.36,13.49A13.4,13.4,0,0,0,276.26,200.57Z"/><path class="cls-1" d="M168.17,139.87c8,0,15.93,0,23.9,0,1,0,2.35.09,2.9.71a5.24,5.24,0,0,1,1.26,3.46,2.88,2.88,0,0,1-3.12,2.52c-2.77,0-5.54,0-8.31,0H145.09c-.55,0-1.11,0-1.66,0a3.38,3.38,0,0,1-3.52-3.37,3.3,3.3,0,0,1,3.52-3.35c5.13,0,10.26,0,15.38,0Z"/><path class="cls-1" d="M145.1,153.36q12,0,24.11,0c2.36,0,3.8,1.2,3.93,3.15s-1.4,3.55-3.73,3.57c-3.67,0-7.35,0-11,0-12.47,0-24.94,0-37.41,0-1,0-2.47-.17-3-.85a4.94,4.94,0,0,1-1-3.51c.25-1.71,1.75-2.36,3.46-2.35H145.1Z"/><path class="cls-1" d="M166.51,99.41c0-5.69,0-11.08,0-16.48,0-2.36,1.53-3.89,3.54-3.74a3.27,3.27,0,0,1,3.07,3.37q.08,10.11,0,20.22a3.16,3.16,0,0,1-3.3,3.33q-8.31.11-16.62,0a3.26,3.26,0,0,1-3.32-3.32,3.3,3.3,0,0,1,3.5-3.37C157.67,99.37,162,99.41,166.51,99.41Z"/></svg>